<svg width="53" height="53" viewBox="0 0 53 53" fill="none" xmlns="http://www.w3.org/2000/svg">
<rect width="53" height="53" rx="8" fill="#FE644D"/>
<path d="M47 27C47 38.0457 38.0457 47 27 47C15.9543 47 7 38.0457 7 27C7 15.9543 15.9543 7 27 7C38.0457 7 47 15.9543 47 27ZM11 27C11 35.8366 18.1634 43 27 43C35.8366 43 43 35.8366 43 27C43 18.1634 35.8366 11 27 11C18.1634 11 11 18.1634 11 27Z" fill="white"/>
<path d="M34.7082 26.5C37.6308 26.5 40.0932 28.9516 39.0104 31.6662V31.6662C38.3571 33.3041 37.3995 34.7924 36.1924 36.0459C34.9852 37.2995 33.5521 38.2939 31.9749 38.9724C30.3977 39.6508 28.7072 40 27 40C25.2928 40 23.6023 39.6508 22.0251 38.9724C20.4479 38.2939 19.0148 37.2995 17.8076 36.0459C16.6004 34.7923 15.6429 33.3041 14.9896 31.6662V31.6662C13.9068 28.9516 16.3692 26.5 19.2918 26.5L27 26.5H34.7082Z" fill="white"/>
</svg>
